# xmcd
#
# Track frame offsets:
#	183
#	17170
#	32663
#	50290
#	66185
#	82050
#	98415
#	111500
#	128415
#	145583
#	172848
#
# Disc length: 2480 seconds
#
# Revision: 1
# Processed by: cddbd v1.5.2PL0 Copyright (c) Steve Scherf et al.
# Submitted via: EasyCDDAExtractor 11.5.3.1
#
DISCID=8409ae0b
DTITLE=Big Guitars From Memphis
DYEAR=1990
DGENRE=Country
TTITLE0=Sinkin´
TTITLE1=Millionaire
TTITLE2=Tennessee Plates
TTITLE3=Tonight Alone
TTITLE4=Business As Usual
TTITLE5=Workin´ Man
TTITLE6=Last Time
TTITLE7=Six Pack To Go
TTITLE8=Sixteen Tons
TTITLE9=So Dog-Gone Lonesome
TTITLE10=Viva Las Vegas
EXTD=
EXTT0=
EXTT1=
EXTT2=
EXTT3=
EXTT4=
EXTT5=
EXTT6=
EXTT7=
EXTT8=
EXTT9=
EXTT10=
PLAYORDER=
